<svg xmlns="http://www.w3.org/2000/svg" width="400" height="280" viewBox="0 0 400 280"><circle cx="180" cy="140" r="90" fill="none" stroke="#111" stroke-width="2"/><line x1="70" y1="50" x2="330" y2="50" stroke="#111" stroke-width="2"/><line x1="180" y1="50" x2="180" y2="230" stroke="#111" stroke-width="2"/><line x1="180" y1="50" x2="265.6" y2="167.8" stroke="#111" stroke-width="2"/><polyline points="180,50 194,50 194,64 180,64" fill="none" stroke="#111" stroke-width="1.5"/><path d="M 205 50 A 25 25 0 0 1 193 66" fill="none" stroke="#111" stroke-width="1.5"/><path d="M 180 83 A 33 33 0 0 0 193 66" fill="none" stroke="#111" stroke-width="1.5"/><circle cx="180" cy="140" r="3" fill="#111"/><circle cx="180" cy="50" r="3" fill="#111"/><circle cx="265.6" cy="167.8" r="3" fill="#111"/><circle cx="180" cy="230" r="3" fill="#111"/><text x="171" y="42" font-size="16" font-family="Arial">A</text><text x="272" y="172" font-size="16" font-family="Arial">B</text><text x="184" y="247" font-size="16" font-family="Arial">C</text><text x="188" y="145" font-size="16" font-family="Arial">O</text><text x="82" y="43" font-size="15" font-family="Arial">tangent</text><text x="209" y="72" font-size="16" font-family="Arial">3x+6°</text><text x="195" y="104" font-size="16" font-family="Arial">2x+4°</text></svg>